<svg xmlns="http://www.w3.org/2000/svg" viewBox="0 0 43 43"><defs><style>.cls-1 {
  fill: #fff;
}

</style></defs><g id="Layer_2" data-name="Layer 2"><g id="Contact"><path class="cls-1" d="M43,14.62V36.44a1.17,1.17,0,0,0-.06.2,7.14,7.14,0,0,1-3,5A6.93,6.93,0,0,1,35.76,43Q21.44,43,7.09,43a6.47,6.47,0,0,1-2-.33,7.38,7.38,0,0,1-5-7C0,28.8,0,21.89,0,15v-.34H11A12.61,12.61,0,0,0,28.76,32a12.16,12.16,0,0,0,4.84-6.73A12.45,12.45,0,0,0,32,14.61H43"></path><path class="cls-1" d="M43,6.56v6.12l-.16,0h-12a.42.42,0,0,1-.27-.12c-.34-.3-.66-.63-1-.92a12.58,12.58,0,0,0-17,.86.58.58,0,0,1-.44.19H0v-.32c0-1.6,0-3.21,0-4.81,0-.32,0-.64.06-1A7.34,7.34,0,0,1,1.56,2.86,7.64,7.64,0,0,1,2.85,1.54V11a.6.6,0,0,0,.64.59h.7a.43.43,0,0,0,.44-.36,1.67,1.67,0,0,0,0-.39q0-5.05,0-10.1c0-.22.06-.32.27-.38C5.3.23,5.66.11,6,0h.06c0,.11,0,.23,0,.34V10.79a.73.73,0,0,0,.74.77h.6A.51.51,0,0,0,8,11C8,7.33,8,3.66,8,0H9.46V10.8a.68.68,0,0,0,.5.71,3.11,3.11,0,0,0,1,0c.35-.06.41-.24.41-.72V.24a1.94,1.94,0,0,1,0-.24h25L37,.11a7.18,7.18,0,0,1,5.65,4.82A14.34,14.34,0,0,1,43,6.56m-4,.26V4.08a1.28,1.28,0,0,0-1.29-1.32c-1.85,0-3.69,0-5.53,0a1.37,1.37,0,0,0-1.39,1.43V9.42A1.46,1.46,0,0,0,32.33,11c1.75,0,3.51,0,5.26,0A1.37,1.37,0,0,0,39,9.51V6.82"></path><path class="cls-1" d="M37.41,6.87V5.66a1.3,1.3,0,0,0-1.27-1.3q-1.24,0-2.49,0a1.37,1.37,0,0,0-1.34,1.37q0,1.14,0,2.28a1.45,1.45,0,0,0,1.46,1.44H36a1.39,1.39,0,0,0,1.38-1.38V6.87"></path><path class="cls-1" d="M37.41,6.87V8.08A1.39,1.39,0,0,1,36,9.46H33.77A1.45,1.45,0,0,1,32.31,8q0-1.14,0-2.28a1.37,1.37,0,0,1,1.34-1.37q1.24,0,2.49,0a1.3,1.3,0,0,1,1.27,1.3V6.87"></path><path class="cls-1" d="M21.53,10.34A11.08,11.08,0,1,0,32.59,21.42,11.11,11.11,0,0,0,21.53,10.34ZM21.38,28.2a6.78,6.78,0,1,1,6.92-6.67A6.81,6.81,0,0,1,21.38,28.2Z"></path></g></g></svg>