<svg id="Layer_1" data-name="Layer 1" xmlns="http://www.w3.org/2000/svg" viewBox="0 0 331.93 259.55"><defs><style>.cls-1 {
  fill: #fff;
}

.cls-2 {
  fill: #2aabe3;
}

</style></defs><polygon class="cls-1" points="324.72 102.72 318.89 98.83 313.06 94.96 307.22 91.09 301.37 87.23 295.52 83.38 284.45 76.12 284.67 63.55 284.88 50.26 285.07 36.96 285.24 23.67 285.26 21.55 283.09 21.52 262.67 21.3 260.32 21.28 260.3 23.67 260.12 43.84 260.01 59.16 252.04 54.09 239.99 46.45 215.85 31.23 191.67 16.05 179.57 8.49 167.46 0.94 165.95 0 164.47 0.94 143.97 13.95 123.48 27.01 113.25 33.55 103.03 40.11 92.82 46.69 82.62 53.27 72.42 59.87 62.24 66.49 52.06 73.12 41.9 79.77 31.75 86.45 21.61 93.14 11.49 99.86 6.44 103.24 1.4 106.62 6.64 103.55 11.87 100.47 22.32 94.28 32.76 88.06 43.18 81.82 53.59 75.56 63.98 69.27 74.37 62.98 84.75 56.66 95.11 50.34 105.47 44 115.82 37.64 126.16 31.27 146.82 18.5 165.95 6.62 176.54 13.31 188.61 20.92 212.78 36.1 236.99 51.23 249.11 58.77 261.24 66.29 265.38 68.86 265.35 64.02 265.21 43.84 265.05 26.01 280.98 25.84 281.12 36.96 281.31 50.26 281.51 63.55 281.75 76.84 281.76 77.61 282.38 77.98 294.39 85.19 300.4 88.79 306.41 92.37 312.43 95.95 318.46 99.52 324.49 103.08 330.54 106.62 324.72 102.72"></polygon><path class="cls-1" d="M186.2,222.39V182.63H146v39.76H124.22v-99H146v39.2H186.2v-39.2H208v99Z"></path><path class="cls-1" d="M270.39,222.39H231.76v-99h38.63c31.13,0,52.64,21.37,52.64,49.24v.28C323,200.74,301.52,222.39,270.39,222.39Zm29.86-49.53c0-17.54-12-29.85-29.86-29.85H253.55v59.71h16.84c17.83,0,29.86-12,29.86-29.57Z"></path><path class="cls-1" d="M117.84,171.77a5.55,5.55,0,0,0-.82-3.08,5.46,5.46,0,0,0-2.16-2,5.21,5.21,0,0,0-2.38-.56c-2.53,0-5.06,0-7.59,0-.32,0-.39-.06-.39-.38,0-.49,0-1,0-1.47a1.34,1.34,0,0,0-1.44-1.5c-1.35,0-2.7,0-4,0a1.43,1.43,0,0,0-.63.21,1.31,1.31,0,0,0-.63,1.23c0,.38,0,.76,0,1.15H60.27v18.81H82.2v14.15c-5.52,4-12.59,5.95-20.52,5.95-17.54,0-30-13.3-30-31.42v-.28c0-16.84,12.59-30.84,28.44-30.84,11.46,0,18.25,3.67,25.89,10l13.73-16.55c-10.33-8.78-21.09-13.59-38.92-13.59-30,0-51.93,23.07-51.93,51.22v.29c0,29.29,21.23,50.94,52.08,50.94a64.26,64.26,0,0,0,42.3-15.71V173.47h6.77c.38,0,.42,0,.42.43v2.65c0,.4.06.45.47.46h6.62a.22.22,0,0,0,.25-.2,2.83,2.83,0,0,0,0-.29C117.83,174.94,117.82,173.35,117.84,171.77Z"></path><path class="cls-1" d="M102.94,160c0,.49,0,1,0,1.48,0,.22-.08.32-.29.32h-3a.27.27,0,0,1-.3-.28c0-.1,0-.21,0-.31,0-.91,0-1.81,0-2.72a.33.33,0,0,0-.35-.37H97.37a.52.52,0,0,0-.52.37,2.32,2.32,0,0,1-2.49,1.39,2.19,2.19,0,0,1-1.65-1.17,2.13,2.13,0,0,1-.18-1.8,2.34,2.34,0,0,1,1-1.28,2.3,2.3,0,0,1,2.81.35,3.57,3.57,0,0,1,.51.81.38.38,0,0,0,.38.27c.6,0,1.21,0,1.81,0a.38.38,0,0,0,.4-.32,1.73,1.73,0,0,1,2.17-1.23,1.58,1.58,0,0,1,1.14,1c.19.52.18.53.74.53s1,0,1.47,0a.4.4,0,0,0,.43-.3,2.31,2.31,0,0,1,4.41,1.29,2.31,2.31,0,0,1-4.42.38.42.42,0,0,0-.42-.32h-1.7c-.23,0-.34.14-.34.38V160Z"></path><path class="cls-2" d="M117.61,185.55c-.2-.35-.41-.68-.62-1l-.61-1c-.3-.52-.62-1-.9-1.57a13.74,13.74,0,0,1-.59-1.29c-.19-.43-.33-.89-.5-1.33a3.42,3.42,0,0,0-.23-.42l-.08,0a7.2,7.2,0,0,1-.19.77c-.2.53-.42,1.06-.66,1.58a12.68,12.68,0,0,1-.62,1.22c-.29.51-.61,1-.92,1.51s-.6.93-.85,1.43a6,6,0,0,0-.6,1.44,4.08,4.08,0,0,0,.39,2.86,3.83,3.83,0,0,0,2.48,2,4,4,0,0,0,3.47-.64,4,4,0,0,0,1.63-2.83A4.35,4.35,0,0,0,117.61,185.55Zm-1.71,4.95a2.83,2.83,0,0,1-1.45.46.67.67,0,0,1-.49-.19c-.18-.2,0-.5.27-.55a2.93,2.93,0,0,0,1.25-.41,2.15,2.15,0,0,0,1-1.78c0-.17,0-.34,0-.51a.47.47,0,0,1,.06-.27c.1-.09.27-.24.34-.21a.83.83,0,0,1,.37.37,1.24,1.24,0,0,1,0,.47A3.09,3.09,0,0,1,115.9,190.5Z"></path><rect class="cls-1" y="251.11" width="71.19" height="1.49"></rect><path class="cls-1" d="M94.23,259.55a7.11,7.11,0,0,1-5.18-2.16A7.26,7.26,0,0,1,87.53,255a7.84,7.84,0,0,1-.54-2.91v0a7.77,7.77,0,0,1,.54-2.89,7.61,7.61,0,0,1,1.52-2.39,7.17,7.17,0,0,1,5.24-2.19,8.89,8.89,0,0,1,1.79.16,7.23,7.23,0,0,1,1.47.47,6.45,6.45,0,0,1,1.26.72,9.79,9.79,0,0,1,1.12.94l-1.12,1.19a9.3,9.3,0,0,0-2-1.42,5.84,5.84,0,0,0-4.77-.1,5.3,5.3,0,0,0-1.77,1.26,5.94,5.94,0,0,0-1.18,1.88,6.42,6.42,0,0,0-.42,2.33v0a6.4,6.4,0,0,0,.42,2.34,6.1,6.1,0,0,0,1.18,1.89,5.63,5.63,0,0,0,1.77,1.27,5.32,5.32,0,0,0,2.22.46,5.62,5.62,0,0,0,2.56-.54A9.06,9.06,0,0,0,98.94,256l1.07,1a9.47,9.47,0,0,1-1.17,1,7,7,0,0,1-1.31.8,7.16,7.16,0,0,1-1.5.51A7.71,7.71,0,0,1,94.23,259.55Z"></path><path class="cls-1" d="M109.57,259.55a7.32,7.32,0,0,1-3-.6,7.14,7.14,0,0,1-3.82-4,7.78,7.78,0,0,1-.52-2.84v0a7.88,7.88,0,0,1,.53-2.85,7.49,7.49,0,0,1,9.86-4,6.93,6.93,0,0,1,2.32,1.62,7.13,7.13,0,0,1,1.5,2.37A7.78,7.78,0,0,1,117,252s0,0,0,0a7.88,7.88,0,0,1-.53,2.85,7.21,7.21,0,0,1-3.84,4A7.23,7.23,0,0,1,109.57,259.55Zm0-1.51a5.56,5.56,0,0,0,2.28-.46,5.45,5.45,0,0,0,1.78-1.27,5.85,5.85,0,0,0,1.17-1.88,6.28,6.28,0,0,0,.42-2.31v0a6.33,6.33,0,0,0-.42-2.32,5.72,5.72,0,0,0-3-3.17,5.42,5.42,0,0,0-2.28-.48,5.58,5.58,0,0,0-2.29.47,5.31,5.31,0,0,0-1.78,1.27,5.92,5.92,0,0,0-1.17,1.88,6.24,6.24,0,0,0-.42,2.31v0a6.37,6.37,0,0,0,.42,2.32,6,6,0,0,0,1.19,1.89,5.88,5.88,0,0,0,1.81,1.28A5.5,5.5,0,0,0,109.61,258Z"></path><path class="cls-1" d="M120.4,244.85h1.53l9.1,11.58V244.85h1.59V259.3h-1.3L122,247.46V259.3H120.4Z"></path><path class="cls-1" d="M140.52,246.36h-4.85v-1.51H147v1.51h-4.85V259.3h-1.63Z"></path><path class="cls-1" d="M150.08,244.85h6.21a6.75,6.75,0,0,1,2.38.39,4.56,4.56,0,0,1,1.72,1.06,3.69,3.69,0,0,1,.83,1.26,4.29,4.29,0,0,1,.29,1.59v0a4.37,4.37,0,0,1-.29,1.62,3.58,3.58,0,0,1-.82,1.24,4.23,4.23,0,0,1-1.24.86,6.25,6.25,0,0,1-1.57.49l4.43,5.9h-2l-4.19-5.61h-4.12v5.61h-1.63Zm6.07,7.37a5.37,5.37,0,0,0,1.49-.2,3.73,3.73,0,0,0,1.18-.59,2.9,2.9,0,0,0,.78-.93,2.68,2.68,0,0,0,.28-1.25v0a2.55,2.55,0,0,0-1-2.1,4.4,4.4,0,0,0-2.74-.75h-4.46v5.86Z"></path><path class="cls-1" d="M170.34,244.75h1.53l6.58,14.55H176.7L175,255.48h-7.87l-1.71,3.82h-1.67Zm4,9.27-3.29-7.37-3.3,7.37Z"></path><path class="cls-1" d="M187.9,259.55a7.11,7.11,0,0,1-5.18-2.16,7.23,7.23,0,0,1-1.51-2.36,7.65,7.65,0,0,1-.55-2.91v0a7.73,7.73,0,0,1,2.06-5.28,7.17,7.17,0,0,1,5.25-2.19,8.79,8.79,0,0,1,1.78.16,7.53,7.53,0,0,1,1.48.47,6.67,6.67,0,0,1,1.25.72,9.79,9.79,0,0,1,1.12.94l-1.12,1.19a9.06,9.06,0,0,0-2-1.42,5.82,5.82,0,0,0-4.76-.1,5.34,5.34,0,0,0-1.78,1.26,5.74,5.74,0,0,0-1.17,1.88,6.22,6.22,0,0,0-.43,2.33v0a6.2,6.2,0,0,0,.43,2.34,5.9,5.9,0,0,0,1.17,1.89,5.67,5.67,0,0,0,1.78,1.27,5.27,5.27,0,0,0,2.21.46,5.59,5.59,0,0,0,2.56-.54,9.06,9.06,0,0,0,2.11-1.54l1.07,1a10.18,10.18,0,0,1-1.16,1,7.65,7.65,0,0,1-1.31.8,7.25,7.25,0,0,1-1.51.51A7.71,7.71,0,0,1,187.9,259.55Z"></path><path class="cls-1" d="M200.35,246.36H195.5v-1.51h11.33v1.51H202V259.3h-1.63Z"></path><path class="cls-1" d="M210.05,244.85h1.63V259.3h-1.63Z"></path><path class="cls-1" d="M215.91,244.85h1.52l9.11,11.58V244.85h1.58V259.3h-1.3l-9.32-11.84V259.3h-1.59Z"></path><path class="cls-1" d="M238.92,259.55a7.68,7.68,0,0,1-3.07-.58,6.79,6.79,0,0,1-3.77-4,8.15,8.15,0,0,1-.51-2.9v0a7.78,7.78,0,0,1,.53-2.84,7.44,7.44,0,0,1,1.47-2.38,7.07,7.07,0,0,1,2.28-1.64,7,7,0,0,1,3-.61,10.74,10.74,0,0,1,1.67.12,6.86,6.86,0,0,1,2.62,1,9.23,9.23,0,0,1,1.1.82l-1,1.23a9.16,9.16,0,0,0-.87-.67,5.35,5.35,0,0,0-1-.51,5.52,5.52,0,0,0-1.15-.34,6.73,6.73,0,0,0-1.4-.13,5.1,5.1,0,0,0-2.21.48,5.24,5.24,0,0,0-1.73,1.28,5.76,5.76,0,0,0-1.13,1.89,6.23,6.23,0,0,0-.42,2.28v0a6.85,6.85,0,0,0,.41,2.39,5.6,5.6,0,0,0,1.14,1.9,5.13,5.13,0,0,0,1.8,1.26,6,6,0,0,0,2.37.45,6.42,6.42,0,0,0,2.33-.42,6.84,6.84,0,0,0,1.84-1v-3.59h-4.4v-1.47h6v5.76a9.27,9.27,0,0,1-2.49,1.56A8.18,8.18,0,0,1,238.92,259.55Z"></path><rect class="cls-1" x="260.74" y="251.11" width="71.19" height="1.49"></rect><path class="cls-1" d="M115.9,190.5a2.83,2.83,0,0,1-1.45.46.67.67,0,0,1-.49-.19c-.18-.2,0-.5.27-.55a2.93,2.93,0,0,0,1.25-.41,2.15,2.15,0,0,0,1-1.78c0-.17,0-.34,0-.51a.47.47,0,0,1,.06-.27c.1-.09.27-.24.34-.21a.83.83,0,0,1,.37.37,1.24,1.24,0,0,1,0,.47A3.09,3.09,0,0,1,115.9,190.5Z"></path></svg>