<svg id="Layer_1" data-name="Layer 1" xmlns="http://www.w3.org/2000/svg" viewBox="0 0 331.93 259.55"><defs><style>.cls-1{fill:#fff}</style></defs><path class="cls-1" d="m324.72 102.72-5.83-3.89-5.83-3.87-5.84-3.87-5.85-3.86-5.85-3.85-11.07-7.26.22-12.57.21-13.29.19-13.3.17-13.29.02-2.12-2.17-.03-20.42-.22-2.35-.02-.02 2.39-.18 20.17-.11 15.32-7.97-5.07-12.05-7.64-24.14-15.22-24.18-15.18-12.1-7.56L167.46.94 165.95 0l-1.48.94-20.5 13.01-20.49 13.06-10.23 6.54-10.22 6.56-10.21 6.58-10.2 6.58-10.2 6.6-10.18 6.62-10.18 6.63-10.16 6.65-10.15 6.68-10.14 6.69-10.12 6.72-5.05 3.38-5.04 3.38 5.24-3.07 5.23-3.08 10.45-6.19 10.44-6.22 10.42-6.24 10.41-6.26 10.39-6.29 10.39-6.29 10.38-6.32 10.36-6.32L105.47 44l10.35-6.36 10.34-6.37 20.66-12.77 19.13-11.88 10.59 6.69 12.07 7.61 24.17 15.18 24.21 15.13 12.12 7.54 12.13 7.52 4.14 2.57-.03-4.84-.14-20.18-.16-17.83 15.93-.17.14 11.12.19 13.3.2 13.29.24 13.29.01.77.62.37 12.01 7.21 6.01 3.6 6.01 3.58 6.02 3.58 6.03 3.57 6.03 3.56 6.05 3.54-5.82-3.9zM186.2 222.39v-39.76H146v39.76h-21.78v-99H146v39.2h40.2v-39.2H208v99ZM270.39 222.39h-38.63v-99h38.63c31.13 0 52.64 21.37 52.64 49.24v.28c-.03 27.83-21.51 49.48-52.64 49.48Zm29.86-49.53c0-17.54-12-29.85-29.86-29.85h-16.84v59.71h16.84c17.83 0 29.86-12 29.86-29.57ZM117.84 171.77a5.55 5.55 0 0 0-.82-3.08 5.46 5.46 0 0 0-2.16-2 5.21 5.21 0 0 0-2.38-.56h-7.59c-.32 0-.39-.06-.39-.38v-1.47a1.34 1.34 0 0 0-1.44-1.5h-4a1.43 1.43 0 0 0-.63.21 1.31 1.31 0 0 0-.63 1.23v1.15H60.27v18.81H82.2v14.15c-5.52 4-12.59 5.95-20.52 5.95-17.54 0-30-13.3-30-31.42v-.28c0-16.84 12.59-30.84 28.44-30.84 11.46 0 18.25 3.67 25.89 10l13.73-16.55c-10.33-8.78-21.09-13.59-38.92-13.59-30 0-51.93 23.07-51.93 51.22v.29c0 29.29 21.23 50.94 52.08 50.94a64.26 64.26 0 0 0 42.3-15.71v-34.87h6.77c.38 0 .42 0 .42.43v2.65c0 .4.06.45.47.46h6.62a.22.22 0 0 0 .25-.2 2.83 2.83 0 0 0 0-.29c.03-1.58.02-3.17.04-4.75Z"/><path class="cls-1" d="M102.94 160v1.48c0 .22-.08.32-.29.32h-3a.27.27 0 0 1-.3-.28V158.49a.33.33 0 0 0-.35-.37h-1.63a.52.52 0 0 0-.52.37 2.32 2.32 0 0 1-2.49 1.39 2.19 2.19 0 0 1-1.65-1.17 2.13 2.13 0 0 1-.18-1.8 2.34 2.34 0 0 1 1-1.28 2.3 2.3 0 0 1 2.81.35 3.57 3.57 0 0 1 .51.81.38.38 0 0 0 .38.27h1.81a.38.38 0 0 0 .4-.32 1.73 1.73 0 0 1 2.17-1.23 1.58 1.58 0 0 1 1.14 1c.19.52.18.53.74.53h1.47a.4.4 0 0 0 .43-.3 2.31 2.31 0 0 1 4.41 1.29 2.31 2.31 0 0 1-4.42.38.42.42 0 0 0-.42-.32h-1.7c-.23 0-.34.14-.34.38V160Z"/><path d="M117.61 185.55c-.2-.35-.41-.68-.62-1l-.61-1c-.3-.52-.62-1-.9-1.57a13.74 13.74 0 0 1-.59-1.29c-.19-.43-.33-.89-.5-1.33a3.42 3.42 0 0 0-.23-.42h-.08a7.2 7.2 0 0 1-.19.77c-.2.53-.42 1.06-.66 1.58a12.68 12.68 0 0 1-.62 1.22c-.29.51-.61 1-.92 1.51s-.6.93-.85 1.43a6 6 0 0 0-.6 1.44 4.08 4.08 0 0 0 .39 2.86 3.83 3.83 0 0 0 2.48 2 4 4 0 0 0 3.47-.64 4 4 0 0 0 1.63-2.83 4.35 4.35 0 0 0-.6-2.73Zm-1.71 4.95a2.83 2.83 0 0 1-1.45.46.67.67 0 0 1-.49-.19c-.18-.2 0-.5.27-.55a2.93 2.93 0 0 0 1.25-.41 2.15 2.15 0 0 0 1-1.78v-.51a.47.47 0 0 1 .06-.27c.1-.09.27-.24.34-.21a.83.83 0 0 1 .37.37 1.24 1.24 0 0 1 0 .47 3.09 3.09 0 0 1-1.35 2.62Z" style="fill:#2aabe3"/><path class="cls-1" d="M0 251.11h71.19v1.49H0zM94.23 259.55a7.11 7.11 0 0 1-5.18-2.16 7.26 7.26 0 0 1-1.52-2.39 7.84 7.84 0 0 1-.54-2.91 7.77 7.77 0 0 1 .54-2.89 7.61 7.61 0 0 1 1.52-2.39 7.17 7.17 0 0 1 5.24-2.19 8.89 8.89 0 0 1 1.79.16 7.23 7.23 0 0 1 1.47.47 6.45 6.45 0 0 1 1.26.72 9.79 9.79 0 0 1 1.12.94l-1.12 1.19a9.3 9.3 0 0 0-2-1.42 5.84 5.84 0 0 0-4.77-.1 5.3 5.3 0 0 0-1.77 1.26 5.94 5.94 0 0 0-1.18 1.88 6.42 6.42 0 0 0-.42 2.33 6.4 6.4 0 0 0 .42 2.34 6.1 6.1 0 0 0 1.18 1.89 5.63 5.63 0 0 0 1.77 1.27 5.32 5.32 0 0 0 2.22.46 5.62 5.62 0 0 0 2.56-.54 9.06 9.06 0 0 0 2.12-1.47l1.07 1a9.47 9.47 0 0 1-1.17 1 7 7 0 0 1-1.31.8 7.16 7.16 0 0 1-1.5.51 7.71 7.71 0 0 1-1.8.24ZM109.57 259.55a7.32 7.32 0 0 1-3-.6 7.14 7.14 0 0 1-3.82-4 7.78 7.78 0 0 1-.52-2.84 7.88 7.88 0 0 1 .53-2.85 7.49 7.49 0 0 1 9.86-4 6.93 6.93 0 0 1 2.32 1.62 7.13 7.13 0 0 1 1.5 2.37A7.78 7.78 0 0 1 117 252a7.88 7.88 0 0 1-.53 2.85 7.21 7.21 0 0 1-3.84 4 7.23 7.23 0 0 1-3.06.7Zm0-1.51a5.56 5.56 0 0 0 2.28-.46 5.45 5.45 0 0 0 1.78-1.27 5.85 5.85 0 0 0 1.17-1.88 6.28 6.28 0 0 0 .42-2.31 6.33 6.33 0 0 0-.42-2.32 5.72 5.72 0 0 0-3-3.17 5.42 5.42 0 0 0-2.28-.48 5.58 5.58 0 0 0-2.29.47 5.31 5.31 0 0 0-1.78 1.27 5.92 5.92 0 0 0-1.17 1.88 6.24 6.24 0 0 0-.42 2.31 6.37 6.37 0 0 0 .42 2.32 6 6 0 0 0 1.19 1.89 5.88 5.88 0 0 0 1.81 1.28 5.5 5.5 0 0 0 2.33.43ZM120.4 244.85h1.53l9.1 11.58v-11.58h1.59v14.45h-1.3L122 247.46v11.84h-1.6ZM140.52 246.36h-4.85v-1.51H147v1.51h-4.85v12.94h-1.63ZM150.08 244.85h6.21a6.75 6.75 0 0 1 2.38.39 4.56 4.56 0 0 1 1.72 1.06 3.69 3.69 0 0 1 .83 1.26 4.29 4.29 0 0 1 .29 1.59 4.37 4.37 0 0 1-.29 1.62 3.58 3.58 0 0 1-.82 1.24 4.23 4.23 0 0 1-1.24.86 6.25 6.25 0 0 1-1.57.49l4.43 5.9h-2l-4.19-5.61h-4.12v5.61h-1.63Zm6.07 7.37a5.37 5.37 0 0 0 1.49-.2 3.73 3.73 0 0 0 1.18-.59 2.9 2.9 0 0 0 .78-.93 2.68 2.68 0 0 0 .28-1.25 2.55 2.55 0 0 0-1-2.1 4.4 4.4 0 0 0-2.74-.75h-4.46v5.86ZM170.34 244.75h1.53l6.58 14.55h-1.75l-1.7-3.82h-7.87l-1.71 3.82h-1.67Zm4 9.27-3.29-7.37-3.3 7.37ZM187.9 259.55a7.11 7.11 0 0 1-5.18-2.16 7.23 7.23 0 0 1-1.51-2.36 7.65 7.65 0 0 1-.55-2.91 7.73 7.73 0 0 1 2.06-5.28 7.17 7.17 0 0 1 5.25-2.19 8.79 8.79 0 0 1 1.78.16 7.53 7.53 0 0 1 1.48.47 6.67 6.67 0 0 1 1.25.72 9.79 9.79 0 0 1 1.12.94l-1.12 1.19a9.06 9.06 0 0 0-2-1.42 5.82 5.82 0 0 0-4.76-.1 5.34 5.34 0 0 0-1.78 1.26 5.74 5.74 0 0 0-1.17 1.88 6.22 6.22 0 0 0-.43 2.33 6.2 6.2 0 0 0 .43 2.34 5.9 5.9 0 0 0 1.17 1.89 5.67 5.67 0 0 0 1.78 1.27 5.27 5.27 0 0 0 2.21.46 5.59 5.59 0 0 0 2.56-.54 9.06 9.06 0 0 0 2.11-1.54l1.07 1a10.18 10.18 0 0 1-1.16 1 7.65 7.65 0 0 1-1.31.8 7.25 7.25 0 0 1-1.51.51 7.71 7.71 0 0 1-1.79.28ZM200.35 246.36h-4.85v-1.51h11.33v1.51H202v12.94h-1.63ZM210.05 244.85h1.63v14.45h-1.63ZM215.91 244.85h1.52l9.11 11.58v-11.58h1.58v14.45h-1.3l-9.32-11.84v11.84h-1.59ZM238.92 259.55a7.68 7.68 0 0 1-3.07-.58 6.79 6.79 0 0 1-3.77-4 8.15 8.15 0 0 1-.51-2.9 7.78 7.78 0 0 1 .53-2.84 7.44 7.44 0 0 1 1.47-2.38 7.07 7.07 0 0 1 2.28-1.64 7 7 0 0 1 3-.61 10.74 10.74 0 0 1 1.67.12 6.86 6.86 0 0 1 2.62 1 9.23 9.23 0 0 1 1.1.82l-1 1.23a9.16 9.16 0 0 0-.87-.67 5.35 5.35 0 0 0-1-.51 5.52 5.52 0 0 0-1.15-.34 6.73 6.73 0 0 0-1.4-.13 5.1 5.1 0 0 0-2.21.48 5.24 5.24 0 0 0-1.73 1.28 5.76 5.76 0 0 0-1.13 1.89 6.23 6.23 0 0 0-.42 2.28 6.85 6.85 0 0 0 .41 2.39 5.6 5.6 0 0 0 1.14 1.9 5.13 5.13 0 0 0 1.8 1.26 6 6 0 0 0 2.37.45 6.42 6.42 0 0 0 2.33-.42 6.84 6.84 0 0 0 1.84-1v-3.59h-4.4v-1.47h6v5.76a9.27 9.27 0 0 1-2.49 1.56 8.18 8.18 0 0 1-3.41.66ZM260.74 251.11h71.19v1.49h-71.19zM115.9 190.5a2.83 2.83 0 0 1-1.45.46.67.67 0 0 1-.49-.19c-.18-.2 0-.5.27-.55a2.93 2.93 0 0 0 1.25-.41 2.15 2.15 0 0 0 1-1.78v-.51a.47.47 0 0 1 .06-.27c.1-.09.27-.24.34-.21a.83.83 0 0 1 .37.37 1.24 1.24 0 0 1 0 .47 3.09 3.09 0 0 1-1.35 2.62Z"/></svg>